<?xml version="1.0" encoding="utf-8"?>
<svg width="32" height="32" viewBox="0 0 32 32" fill="none" xmlns="http://www.w3.org/2000/svg">
  <defs>
    <clipPath id="clip_path_1">
      <rect width="32" height="32" rx="8" />
    </clipPath>
  </defs>
  <g clip-path="url(#clip_path_1)">
    <rect width="32" height="32" fill="#0D0045" fill-rule="evenodd" />
    <g transform="translate(4 6)">
      <path d="M17.1602 2.70051L20.7221 2.70051C22.5295 2.70051 24 4.17669 24 5.99122L24 7.21587C24 7.90071 23.4943 8.46894 22.838 8.56447L22.838 18.6371C22.838 19.3886 22.229 20 21.4804 20L2.51958 20C1.77103 20 1.16199 19.3887 1.16199 18.6371L1.16199 8.56448C0.505825 8.46895 0 7.90071 0 7.21587L0 5.99122C0 4.17669 1.47047 2.70051 3.27787 2.70051L6.85425 2.70051L6.85064 1.73566C6.84708 0.779007 7.62136 0 8.57301 0L15.4342 0C16.3803 0 17.153 0.77275 17.1566 1.72258L17.1602 2.70051L17.1602 2.70051ZM15.4342 1.55763L8.57297 1.55763C8.47828 1.55763 8.40179 1.63471 8.40216 1.72982L8.40582 2.70054L15.6086 2.70054L15.605 1.72846C15.6046 1.63429 15.528 1.55763 15.4342 1.55763L15.4342 1.55763ZM1.55156 7.02119L22.4484 7.02119L22.4485 5.99121C22.4485 5.0356 21.6741 4.25809 20.7222 4.25809L3.27787 4.25809C2.32598 4.25809 1.55156 5.0356 1.55156 5.99121L1.55156 7.02119L1.55156 7.02119ZM2.71349 18.4424L21.2865 18.4424L21.2864 8.59807L18.4978 8.59807L18.4978 10.78C18.4978 11.4163 17.9823 11.9339 17.3486 11.9339L15.7154 11.9339C15.0817 11.9339 14.5662 11.4163 14.5662 10.78L14.5662 8.59807L9.43373 8.59807L9.43373 10.78C9.43373 11.4163 8.91815 11.9339 8.28445 11.9339L6.65132 11.9339C6.01757 11.9339 5.50199 11.4163 5.50199 10.78L5.50199 8.59807L2.71349 8.59807L2.71349 18.4424L2.71349 18.4424ZM7.05365 8.59807L7.05365 10.3763L7.88221 10.3763L7.88221 8.59807L7.05365 8.59807L7.05365 8.59807ZM16.1178 8.59807L16.1178 10.3763L16.9463 10.3763L16.9463 8.59807L16.1178 8.59807L16.1178 8.59807Z" fill="#FFFFFF" transform="scale(1 1)" />
    </g>
  </g>
</svg>