<?xml version="1.0" encoding="utf-8"?>
<svg width="74" height="88" viewBox="0 0 74 88" fill="none" xmlns="http://www.w3.org/2000/svg">
  <path d="M15.6272 39.2415C15.9233 38.9864 16.1553 38.6773 16.3167 38.3224C16.9203 36.967 16.3143 35.3774 14.9715 34.7696C9.01837 32.1056 5.27614 26.2116 5.43126 19.7496C5.54066 15.2508 7.57738 10.9719 11.0193 8.00849C11.9131 7.23887 12.8926 6.56704 13.9318 6.00946C14.506 5.70466 15.1057 5.42664 15.7124 5.18881C16.691 4.80644 17.4031 3.81795 17.4287 2.75819C17.4315 2.37817 17.3687 2.03479 17.2399 1.71156C16.9613 1.02473 16.4464 0.503256 15.787 0.223163C15.1408 -0.0603447 14.4016 -0.0756826 13.7222 0.188202C12.9329 0.49629 12.1373 0.864455 11.3545 1.28004C9.96411 2.02501 8.65565 2.92342 7.46458 3.94889C2.87466 7.90086 0.155655 13.6129 0.00636292 19.6181C-0.202591 28.2477 4.79346 36.1165 12.7307 39.6682C13.7016 40.0938 14.8332 39.9251 15.6272 39.2415L15.6272 39.2415ZM58.3728 39.2415C58.0766 38.9864 57.8447 38.6773 57.6832 38.3224C57.0796 36.967 57.6856 35.3774 59.0284 34.7696C64.9816 32.1056 68.7238 26.2116 68.5687 19.7496C68.4593 15.2508 66.4226 10.9719 62.9807 8.00849C62.0869 7.23887 61.1074 6.56704 60.0682 6.00946C59.494 5.70466 58.8943 5.42664 58.2876 5.18881C57.309 4.80644 56.5968 3.81795 56.5713 2.75819C56.5684 2.37817 56.6313 2.03479 56.7601 1.71156C57.0387 1.02473 57.5535 0.503256 58.213 0.223163C58.8591 -0.0603447 59.5984 -0.0756826 60.2778 0.188202C61.0671 0.49629 61.8627 0.864455 62.6454 1.28004C64.0359 2.02501 65.3443 2.92342 66.5354 3.94889C71.1253 7.90086 73.8443 13.6129 73.9936 19.6181C74.2026 28.2477 69.2065 36.1165 61.2693 39.6682C60.2983 40.0938 59.1668 39.9251 58.3728 39.2415L58.3728 39.2415ZM23.9111 32.2927C24.1665 31.6106 24.1362 30.8797 23.8307 30.2224C23.5251 29.5653 22.9843 29.0678 22.3085 28.8222C18.5444 27.4385 16.0766 23.8325 16.1736 19.849C16.2609 16.2656 18.5557 12.9009 21.8894 11.488C22.2106 11.3529 22.5473 11.2325 22.8813 11.1325C23.9464 10.8273 24.7804 9.77822 24.8127 8.63997C24.8172 8.34548 24.7822 8.08501 24.7061 7.81724C24.4987 7.11165 24.0329 6.5439 23.3954 6.20058C22.7554 5.85713 22.0184 5.78125 21.3234 5.98794C20.7824 6.147 20.2513 6.33366 19.7451 6.55354C18.339 7.15057 17.0313 7.96372 15.868 8.96527C12.7151 11.68 10.8486 15.6002 10.7499 19.7183C10.5964 25.9991 14.4887 31.6832 20.4327 33.8627C21.1087 34.1062 21.8601 34.0773 22.5009 33.7857C22.7384 33.6802 22.959 33.5388 23.1551 33.3701C23.4905 33.0813 23.7522 32.7082 23.9111 32.2927L23.9111 32.2927ZM50.0888 32.2927C49.8333 31.6106 49.8636 30.8797 50.1692 30.2224C50.4748 29.5653 51.0156 29.0678 51.6914 28.8222C55.4554 27.4385 57.9233 23.8325 57.8263 19.849C57.739 16.2656 55.4442 12.9009 52.1105 11.488C51.7893 11.3529 51.4526 11.2325 51.1185 11.1325C50.0535 10.8273 49.2195 9.77822 49.1872 8.63997C49.1827 8.34548 49.2177 8.08501 49.2938 7.81724C49.5012 7.11165 49.967 6.5439 50.6045 6.20058C51.2444 5.85713 51.9815 5.78125 52.6765 5.98794C53.2175 6.147 53.7486 6.33366 54.2548 6.55354C55.6609 7.15057 56.9686 7.96372 58.1318 8.96527C61.2848 11.68 63.1513 15.6002 63.25 19.7183C63.4035 25.9991 59.5112 31.6832 53.5672 33.8627C52.8911 34.1062 52.1397 34.0773 51.499 33.7857C51.2615 33.6802 51.0409 33.5388 50.8448 33.3701C50.5094 33.0813 50.2477 32.7082 50.0888 32.2927L50.0888 32.2927ZM27.029 18.6546C27.029 13.2002 31.4931 8.77865 37 8.77865C42.5068 8.77865 46.971 13.2002 46.971 18.6546C46.971 21.3801 45.8564 23.8476 44.054 25.6345C44.1237 25.7751 44.1863 25.9208 44.2416 26.0712L64.7382 81.8482C65.5753 84.1265 64.3897 86.6448 62.0895 87.4741L61.3684 87.7341C59.0682 88.5633 56.5257 87.3889 55.6884 85.1107L53.8823 80.1956L37.1665 71.3924L20.882 80.333L19.312 84.6054C18.4748 86.8837 15.9323 88.058 13.6321 87.2288L12.911 86.9688C10.6108 86.1396 9.42516 83.6212 10.2623 81.343L30.5355 26.174C28.3898 24.3626 27.029 21.666 27.029 18.6546L27.029 18.6546ZM33.4661 46.0878L37.4074 35.3624L41.3488 46.0878L33.4661 46.0878L33.4661 46.0878ZM46.0823 58.9694L37.1004 63.9007L28.5709 59.4088L31.0466 52.6717L43.768 52.6717L46.0823 58.9694L46.0823 58.9694ZM44.0987 67.5862L50.4846 70.9493L48.3842 65.2334L44.0987 67.5862L44.0987 67.5862ZM24.3474 70.9026L30.1682 67.7068L26.2751 65.6566L24.3474 70.9026L24.3474 70.9026Z" fill="#3E87DF" fill-rule="evenodd" transform="matrix(1 0 0 1 0 -0)" />
</svg>