<?xml version="1.0" encoding="utf-8"?>
<svg width="85.905" height="88" viewBox="0 0 85.905 88" fill="none" xmlns="http://www.w3.org/2000/svg">
  <path d="M1.12755 18.3621L42.9523 0L84.1782 18.0992C85.1317 18.5178 85.9046 19.7013 85.9046 20.7427L85.9046 85.9046C85.9046 87.062 84.9667 87.9997 83.8094 87.9997L75.4284 87.9997C74.2711 87.9997 73.3332 87.062 73.3332 85.9046L73.3332 33.3141C73.3332 32.7934 73.1491 32.3489 72.781 31.9808C72.4128 31.6127 71.9684 31.4286 71.4477 31.4286L14.4569 31.4286C13.9363 31.4286 13.4919 31.6127 13.1237 31.9808C12.7556 32.3489 12.5714 32.7934 12.5714 33.3141L12.5714 85.9046C12.5714 87.062 11.6335 87.9997 10.4762 87.9997L2.09523 87.9997C0.937897 87.9997 0 87.062 0 85.9046L0 20.0886C0 19.7144 0.10231 19.3708 0.306915 19.0576C0.511398 18.7444 0.784943 18.5126 1.12755 18.3621L1.12755 18.3621ZM18.9842 41.1642L18.2434 40.4234C17.8343 40.0142 17.3405 39.8097 16.7619 39.8097C16.1833 39.8097 15.6895 40.0142 15.2803 40.4234C14.8712 40.8325 14.6668 41.3263 14.6668 41.9049C14.6668 42.4835 14.8712 42.9773 15.2803 43.3865L21.5661 49.6722C21.7626 49.8686 21.9891 50.02 22.2457 50.1263C22.5025 50.2327 22.7698 50.2858 23.0477 50.2858C23.3256 50.2858 23.5927 50.2327 23.8494 50.1263C24.1061 50.02 24.3326 49.8686 24.5291 49.6722L37.1005 37.1008C37.5096 36.6916 37.7142 36.1978 37.7142 35.6192C37.7142 35.0406 37.5096 34.5468 37.1005 34.1377C36.6914 33.7285 36.1976 33.524 35.619 33.524C35.0404 33.524 34.5466 33.7285 34.1375 34.1377L23.0476 45.2276L18.9842 41.1642L18.9842 41.1642ZM64.9522 39.8097L43.9999 39.8097C42.8426 39.8097 41.9047 40.7476 41.9047 41.9049L41.9047 44.0001C41.9047 45.1575 42.8426 46.0954 43.9999 46.0954L64.9522 46.0954C66.1096 46.0954 67.0475 45.1575 67.0475 44.0001L67.0475 41.9049C67.0475 40.7476 66.1096 39.8097 64.9522 39.8097L64.9522 39.8097ZM18.2434 59.2805L18.9842 60.0213L23.0476 64.0847L34.1375 52.9948C34.5466 52.5856 35.0404 52.3811 35.6191 52.3811C36.1976 52.3811 36.6914 52.5856 37.1005 52.9948C37.5096 53.4038 37.7142 53.8977 37.7142 54.4763C37.7142 55.0549 37.5096 55.5487 37.1005 55.9579L24.5291 68.5293C24.3326 68.7257 24.1061 68.8771 23.8494 68.9834C23.5927 69.0898 23.3256 69.1429 23.0477 69.1429C22.7698 69.1429 22.5025 69.0898 22.2457 68.9834C21.9891 68.8771 21.7626 68.7257 21.5661 68.5293L15.2803 62.2436C14.8712 61.8344 14.6668 61.3406 14.6668 60.762C14.6668 60.1834 14.8712 59.6896 15.2803 59.2805C15.6895 58.8713 16.1833 58.6668 16.7619 58.6668C17.3405 58.6668 17.8343 58.8713 18.2434 59.2805L18.2434 59.2805ZM43.9999 58.6668L64.9522 58.6668C66.1096 58.6668 67.0475 59.6047 67.0475 60.762L67.0475 62.8573C67.0475 64.0146 66.1096 64.9525 64.9522 64.9525L43.9999 64.9525C42.8426 64.9525 41.9047 64.0146 41.9047 62.8573L41.9047 60.762C41.9047 59.6047 42.8426 58.6668 43.9999 58.6668L43.9999 58.6668ZM18.9842 78.8784L18.2434 78.1376C17.8343 77.7285 17.3405 77.5239 16.7619 77.5239C16.1833 77.5239 15.6895 77.7285 15.2803 78.1376C14.8712 78.5467 14.6668 79.0406 14.6668 79.6192C14.6668 80.1977 14.8712 80.6915 15.2803 81.1007L21.5661 87.3864C21.7626 87.5828 21.9891 87.7342 22.2457 87.8405C22.5025 87.9468 22.7698 88 23.0477 88C23.3256 88 23.5927 87.9469 23.8494 87.8406C24.1061 87.7342 24.3326 87.5828 24.5291 87.3864L37.1005 74.815C37.5096 74.4058 37.7142 73.912 37.7142 73.3335C37.7142 72.7549 37.5096 72.261 37.1005 71.8519C36.6914 71.4428 36.1976 71.2382 35.619 71.2382C35.0404 71.2382 34.5466 71.4428 34.1375 71.8519L23.0476 82.9418L18.9842 78.8784L18.9842 78.8784ZM64.9522 77.5239L43.9999 77.5239C42.8426 77.5239 41.9047 78.4618 41.9047 79.6191L41.9047 81.7143C41.9047 82.8717 42.8426 83.8096 43.9999 83.8096L64.9522 83.8096C66.1096 83.8096 67.0475 82.8717 67.0475 81.7143L67.0475 79.6191C67.0475 78.4618 66.1096 77.5239 64.9522 77.5239L64.9522 77.5239Z" fill="#44B072" fill-rule="evenodd" transform="matrix(1 0 0 1 0 0)" />
</svg>