<?xml version="1.0" encoding="utf-8"?>
<svg width="100.621" height="88" viewBox="0 0 100.621 88" fill="none" xmlns="http://www.w3.org/2000/svg">
  <path d="M41.2029 5.15018C45.2557 -1.71673 55.3652 -1.71673 59.4183 5.15018C59.4183 5.15018 99.1708 72.5053 99.1708 72.5053C103.352 79.591 97.93 88 90.0632 88C90.0632 88 10.5578 88 10.5578 88C2.69112 88 -2.73151 79.591 1.45021 72.5053C1.45021 72.5053 41.2029 5.15018 41.2029 5.15018ZM42.1748 25.3753C42.0415 22.9733 43.9532 20.9524 46.359 20.9524C46.359 20.9524 54.2614 20.9524 54.2614 20.9524C56.6671 20.9524 58.5788 22.9733 58.4456 25.3753C58.4456 25.3753 56.8159 54.7088 56.8159 54.7088C56.6923 56.9293 54.8556 58.6667 52.6317 58.6667C52.6317 58.6667 47.9886 58.6667 47.9886 58.6667C45.7648 58.6667 43.9281 56.9293 43.8045 54.7088C43.8045 54.7088 42.1748 25.3753 42.1748 25.3753ZM58.6911 71.2381C58.6911 75.867 54.939 79.6191 50.3102 79.6191C45.6814 79.6191 41.9292 75.867 41.9292 71.2381C41.9292 66.6093 45.6814 62.8572 50.3102 62.8572C54.939 62.8572 58.6911 66.6093 58.6911 71.2381Z" fill="#EBAB47" fill-rule="evenodd" transform="matrix(1 0 0 1 -0 0)" />
</svg>