<?xml version="1.0" encoding="utf-8"?>
<svg width="77" height="88" viewBox="0 0 77 88" fill="none" xmlns="http://www.w3.org/2000/svg">
  <path d="M5.5 79.75C5.5 84.3064 9.19365 88 13.75 88C13.75 88 63.25 88 63.25 88C67.8063 88 71.5 84.3064 71.5 79.75C71.5 79.75 71.5 22 71.5 22L5.5 22C5.5 22 5.5 79.75 5.5 79.75ZM52.25 35.75C52.25 34.2312 53.4812 33 55 33C56.5188 33 57.75 34.2312 57.75 35.75C57.75 35.75 57.75 74.25 57.75 74.25C57.75 75.7688 56.5188 77 55 77C53.4812 77 52.25 75.7688 52.25 74.25C52.25 74.25 52.25 35.75 52.25 35.75ZM35.75 35.75C35.75 34.2312 36.9812 33 38.5 33C40.0188 33 41.25 34.2312 41.25 35.75C41.25 35.75 41.25 74.25 41.25 74.25C41.25 75.7688 40.0188 77 38.5 77C36.9812 77 35.75 75.7688 35.75 74.25C35.75 74.25 35.75 35.75 35.75 35.75ZM19.25 35.75C19.25 34.2312 20.4812 33 22 33C23.5188 33 24.75 34.2312 24.75 35.75C24.75 35.75 24.75 74.25 24.75 74.25C24.75 75.7688 23.5188 77 22 77C20.4812 77 19.25 75.7688 19.25 74.25C19.25 74.25 19.25 35.75 19.25 35.75ZM74.25 5.50003L53.625 5.50003C53.625 5.50003 52.0094 2.28597 52.0094 2.28597C51.3113 0.8844 49.8799 -0.00109291 48.3141 3.05176e-05C48.3141 3.05176e-05 28.6687 3.05176e-05 28.6687 3.05176e-05C27.1059 -0.00597668 25.6772 0.881975 24.9906 2.28597C24.9906 2.28597 23.375 5.50003 23.375 5.50003C23.375 5.50003 2.75 5.50003 2.75 5.50003C1.23122 5.50003 0 6.73124 0 8.25003C0 8.25003 0 13.75 0 13.75C0 15.2688 1.23122 16.5 2.75 16.5C2.75 16.5 74.25 16.5 74.25 16.5C75.7688 16.5 77 15.2688 77 13.75C77 13.75 77 8.25003 77 8.25003C77 6.73124 75.7688 5.50003 74.25 5.50003C74.25 5.50003 74.25 5.50003 74.25 5.50003Z" fill="#919191" transform="translate(0 0)" />
</svg>