<?xml version="1.0" encoding="utf-8"?>
<svg width="27" height="27" viewBox="0 0 27 27" fill="none" xmlns="http://www.w3.org/2000/svg">
  <g transform="translate(1.5 0.5)">
    <g>
      <path d="M9.16504 0L2.57944 0C1.86708 3.42253e-06 1.25908 0.25182 0.75545 0.755449C0.251817 1.25908 0 1.86708 0 2.57944L0 9.16504C-4.27817e-07 9.8774 0.251816 10.4854 0.75545 10.989C1.25909 11.4927 1.86708 11.7445 2.57944 11.7445L9.16504 11.7445C9.8774 11.7445 10.4854 11.4927 10.989 10.989C11.4927 10.4854 11.7445 9.8774 11.7445 9.16504L11.7445 2.57944C11.7445 1.86708 11.4927 1.25908 10.989 0.755449C10.4854 0.251813 9.8774 -3.42253e-06 9.16504 0L9.16504 0ZM21.4206 0L14.835 0C14.1226 3.42253e-06 13.5146 0.25182 13.011 0.755449C12.5073 1.25908 12.2555 1.86708 12.2555 2.57944L12.2555 9.16504C12.2555 9.8774 12.5073 10.4854 13.011 10.989C13.5146 11.4927 14.1226 11.7445 14.835 11.7445L21.4206 11.7445C22.1329 11.7445 22.7409 11.4927 23.2446 10.989C23.7482 10.4854 24 9.87741 24 9.16504L24 2.57944C24 1.86708 23.7482 1.25908 23.2446 0.755449C22.7409 0.251813 22.1329 -3.42253e-06 21.4206 0L21.4206 0ZM1.86567 1.86568C2.06272 1.66862 2.30065 1.5701 2.57944 1.5701L9.16504 1.5701C9.44384 1.5701 9.68176 1.66862 9.87881 1.86568C10.0759 2.06273 10.1744 2.30065 10.1744 2.57944L10.1744 9.16505C10.1744 9.44384 10.0759 9.68176 9.87881 9.87881C9.68176 10.0759 9.44383 10.1744 9.16504 10.1744L2.57944 10.1744C2.30065 10.1744 2.06273 10.0759 1.86567 9.87881C1.66862 9.68176 1.57009 9.44384 1.57009 9.16505L1.57009 2.57944C1.57009 2.30065 1.66862 2.06273 1.86567 1.86568L1.86567 1.86568ZM14.1212 1.86568C14.3182 1.66862 14.5562 1.5701 14.835 1.5701L21.4206 1.5701C21.6993 1.5701 21.9373 1.66862 22.1343 1.86568C22.3314 2.06273 22.4299 2.30065 22.4299 2.57944L22.4299 9.16505C22.4299 9.44384 22.3314 9.68176 22.1343 9.87881C21.9373 10.0759 21.6993 10.1744 21.4206 10.1744L14.835 10.1744C14.5562 10.1744 14.3182 10.0759 14.1212 9.87881C13.9241 9.68176 13.8256 9.44384 13.8256 9.16505L13.8256 2.57944C13.8256 2.30065 13.9241 2.06273 14.1212 1.86568L14.1212 1.86568ZM9.16504 12.2555L2.57944 12.2555C1.86708 12.2555 1.25909 12.5073 0.75545 13.011C0.251817 13.5146 0 14.1226 0 14.835L0 21.4206C4.27817e-07 22.1329 0.251817 22.7409 0.75545 23.2446C1.25908 23.7482 1.86708 24 2.57944 24L9.16504 24C9.87741 24 10.4854 23.7482 10.989 23.2446C11.4927 22.7409 11.7445 22.1329 11.7445 21.4206L11.7445 14.835C11.7445 14.1226 11.4927 13.5146 10.989 13.011C10.4854 12.5073 9.8774 12.2555 9.16504 12.2555L9.16504 12.2555ZM21.4206 12.2555L14.835 12.2555C14.1226 12.2555 13.5146 12.5073 13.011 13.011C12.5073 13.5146 12.2555 14.1226 12.2555 14.835L12.2555 21.4206C12.2555 22.1329 12.5073 22.7409 13.011 23.2446C13.5146 23.7482 14.1226 24 14.835 24L21.4206 24C22.1329 24 22.7409 23.7482 23.2446 23.2446C23.7482 22.7409 24 22.1329 24 21.4206L24 14.835C24 14.1226 23.7482 13.5146 23.2446 13.011C22.7409 12.5073 22.1329 12.2555 21.4206 12.2555L21.4206 12.2555ZM1.86567 14.1212C2.06273 13.9241 2.30065 13.8256 2.57944 13.8256L9.16504 13.8256C9.44383 13.8256 9.68176 13.9241 9.87881 14.1212C10.0759 14.3182 10.1744 14.5562 10.1744 14.835L10.1744 21.4206C10.1744 21.6993 10.0759 21.9373 9.87881 22.1343C9.68176 22.3314 9.44384 22.4299 9.16504 22.4299L2.57944 22.4299C2.30065 22.4299 2.06273 22.3314 1.86567 22.1343C1.66862 21.9373 1.57009 21.6993 1.57009 21.4206L1.57009 14.835C1.57009 14.5562 1.66862 14.3182 1.86567 14.1212L1.86567 14.1212ZM14.1212 14.1212C14.3182 13.9241 14.5562 13.8256 14.835 13.8256L21.4206 13.8256C21.6993 13.8256 21.9373 13.9241 22.1343 14.1212C22.3314 14.3182 22.4299 14.5562 22.4299 14.835L22.4299 21.4206C22.4299 21.6993 22.3314 21.9373 22.1343 22.1343C21.9373 22.3314 21.6993 22.4299 21.4206 22.4299L14.835 22.4299C14.5562 22.4299 14.3182 22.3314 14.1212 22.1343C13.9241 21.9373 13.8256 21.6993 13.8256 21.4206L13.8256 14.835C13.8256 14.5562 13.9241 14.3182 14.1212 14.1212L14.1212 14.1212Z" />
      <path d="M10.7277 0.523982C10.2792 0.174658 9.75832 -2.85035e-06 9.16504 3.48873e-11L2.57944 3.48873e-11Q1.5109 5.13383e-06 0.75545 0.755449C0.251817 1.25908 0 1.86708 0 2.57944L0 9.16504Q0 10.055 0.523986 10.7277Q0.629161 10.8627 0.75545 10.989C1.25909 11.4927 1.86708 11.7445 2.57944 11.7445L9.16504 11.7445C9.75832 11.7445 10.2792 11.5698 10.7277 11.2205C10.8177 11.1504 10.9048 11.0732 10.989 10.989Q11.1153 10.8627 11.2205 10.7277Q11.7445 10.055 11.7445 9.16504L11.7445 2.57944C11.7445 1.86708 11.4927 1.25908 10.989 0.755449C10.9048 0.671256 10.8177 0.5941 10.7277 0.523982ZM0.523986 13.2723Q0 13.945 0 14.835L0 21.4206C0 22.1329 0.251817 22.7409 0.75545 23.2446Q1.5109 24 2.57944 24L9.16504 24C9.75832 24 10.2792 23.8253 10.7277 23.476C10.8177 23.4059 10.9048 23.3287 10.989 23.2446Q11.7445 22.4891 11.7445 21.4206L11.7445 14.835Q11.7445 13.945 11.2205 13.2723Q11.1153 13.1373 10.989 13.011C10.9048 12.9268 10.8177 12.8496 10.7277 12.7795C10.2792 12.4302 9.75832 12.2555 9.16504 12.2555L2.57944 12.2555C1.86708 12.2555 1.25909 12.5073 0.75545 13.011Q0.629162 13.1373 0.523986 13.2723ZM13.2723 23.476Q13.945 24 14.835 24L21.4206 24C22.1329 24 22.7409 23.7482 23.2446 23.2446Q24 22.4891 24 21.4206L24 14.835Q24 13.945 23.476 13.2723Q23.3708 13.1373 23.2446 13.011C22.7409 12.5073 22.1329 12.2555 21.4206 12.2555L14.835 12.2555C14.2417 12.2555 13.7208 12.4302 13.2723 12.7795C13.1823 12.8496 13.0952 12.9268 13.011 13.011Q12.8847 13.1373 12.7795 13.2723Q12.2555 13.945 12.2555 14.835L12.2555 21.4206C12.2555 22.1329 12.5073 22.7409 13.011 23.2446Q13.1372 23.3708 13.2723 23.476ZM23.476 10.7277C23.8253 10.2792 24 9.75832 24 9.16504L24 2.57944C24 1.86708 23.7482 1.25908 23.2446 0.755449C22.7409 0.251813 22.1329 -3.4225e-06 21.4206 3.48873e-11L14.835 3.48873e-11Q13.945 4.27561e-06 13.2723 0.523983Q13.1373 0.629161 13.011 0.755449C12.5073 1.25908 12.2555 1.86708 12.2555 2.57944L12.2555 9.16504Q12.2555 10.055 12.7795 10.7277Q12.8847 10.8627 13.011 10.989C13.0952 11.0732 13.1823 11.1504 13.2723 11.2205C13.7208 11.5698 14.2417 11.7445 14.835 11.7445L21.4206 11.7445C22.1329 11.7445 22.7409 11.4927 23.2446 10.989C23.3287 10.9048 23.4059 10.8177 23.476 10.7277ZM2.57944 1.5701C2.30065 1.5701 2.06272 1.66862 1.86567 1.86568C1.66862 2.06273 1.57009 2.30065 1.57009 2.57944L1.57009 9.16505C1.57009 9.44384 1.66862 9.68176 1.86567 9.87881C2.06273 10.0759 2.30065 10.1744 2.57944 10.1744L9.16504 10.1744C9.44383 10.1744 9.68176 10.0759 9.87881 9.87881C10.0759 9.68176 10.1744 9.44384 10.1744 9.16505L10.1744 2.57944C10.1744 2.30065 10.0759 2.06273 9.87881 1.86568C9.68176 1.66862 9.44384 1.5701 9.16504 1.5701L2.57944 1.5701ZM14.835 1.5701C14.5562 1.5701 14.3182 1.66862 14.1212 1.86568C13.9241 2.06273 13.8256 2.30065 13.8256 2.57944L13.8256 9.16505C13.8256 9.44384 13.9241 9.68176 14.1212 9.87881C14.3182 10.0759 14.5562 10.1744 14.835 10.1744L21.4206 10.1744C21.6993 10.1744 21.9373 10.0759 22.1343 9.87881C22.3314 9.68176 22.4299 9.44384 22.4299 9.16505L22.4299 2.57944C22.4299 2.30065 22.3314 2.06273 22.1343 1.86568C21.9373 1.66862 21.6993 1.5701 21.4206 1.5701L14.835 1.5701ZM2.57944 13.8256C2.30065 13.8256 2.06273 13.9241 1.86567 14.1212C1.66862 14.3182 1.57009 14.5562 1.57009 14.835L1.57009 21.4206C1.57009 21.6993 1.66862 21.9373 1.86567 22.1343C2.06273 22.3314 2.30065 22.4299 2.57944 22.4299L9.16504 22.4299C9.44384 22.4299 9.68176 22.3314 9.87881 22.1343C10.0759 21.9373 10.1744 21.6993 10.1744 21.4206L10.1744 14.835C10.1744 14.5562 10.0759 14.3182 9.87881 14.1212C9.68176 13.9241 9.44383 13.8256 9.16504 13.8256L2.57944 13.8256ZM14.835 13.8256C14.5562 13.8256 14.3182 13.9241 14.1212 14.1212C13.9241 14.3182 13.8256 14.5562 13.8256 14.835L13.8256 21.4206C13.8256 21.6993 13.9241 21.9373 14.1212 22.1343C14.3182 22.3314 14.5562 22.4299 14.835 22.4299L21.4206 22.4299C21.6993 22.4299 21.9373 22.3314 22.1343 22.1343C22.3314 21.9373 22.4299 21.6993 22.4299 21.4206L22.4299 14.835C22.4299 14.5562 22.3314 14.3182 22.1343 14.1212C21.9373 13.9241 21.6993 13.8256 21.4206 13.8256L14.835 13.8256Z" fill="#000000" fill-rule="evenodd" />
    </g>
  </g>
</svg>