<?xml version="1.0" encoding="utf-8"?>
<svg width="24" height="24" viewBox="0 0 24 24" fill="none" xmlns="http://www.w3.org/2000/svg">
  <g>
    <path d="M18.1916 0.000104244C18.1385 0.000104244 18.086 8.17596e-05 18.0343 4.90558e-05L18.0343 4.90558e-05C16.8579 -0.000531438 16.0342 -0.000938192 15.2805 0.310311C14.5266 0.621655 13.9442 1.20302 13.1128 2.03277C13.0762 2.06929 13.0391 2.10629 13.0015 2.14376L10.0186 5.11787L9.85374 5.01176C9.17293 4.57358 8.62162 4.21873 8.14624 3.96255C7.65385 3.69722 7.19259 3.50903 6.68257 3.43366C5.86249 3.31247 5.01925 3.42202 4.24432 3.74356C3.95717 3.8627 3.65602 4.06899 3.38107 4.28092C3.09316 4.50282 2.77949 4.77416 2.46 5.06564C1.82413 5.64572 1.12564 6.34211 0.505643 6.96026L0.497762 6.96812C-0.365986 7.82928 -0.0614404 9.28948 1.06994 9.7378L1.49261 9.90531C1.56364 9.93344 1.59207 9.94471 1.61964 9.9561C2.15785 10.1778 2.64861 10.4997 3.06571 10.9045C3.08706 10.9252 3.10871 10.9467 3.16276 11.0006L4.08972 11.9248C4.07064 12.0476 4.06083 12.1728 4.06083 12.3008C4.06083 13.0059 4.35695 13.5869 4.77517 14.1334C5.17086 14.6506 5.74621 15.2241 6.43398 15.9098L8.04878 17.5198C8.73659 18.2056 9.31189 18.7793 9.83041 19.1737C10.3786 19.5907 10.9602 19.885 11.6651 19.885C11.7728 19.885 11.8787 19.878 11.9831 19.8645C11.9907 19.8717 11.9984 19.8787 12.0063 19.8856L12.5698 20.3797C13.0423 20.8509 13.2329 21.0434 13.396 21.2515C13.5491 21.447 13.6861 21.6545 13.8054 21.8721C13.9341 22.1068 14.0369 22.3609 14.2911 22.9984C14.7196 24.0735 16.1126 24.3333 16.9163 23.532L17.0179 23.4306C17.6378 22.8125 18.3364 22.1161 18.9182 21.482C19.2105 21.1636 19.4827 20.8508 19.7054 20.5637C19.9178 20.2896 20.125 19.989 20.2448 19.7021C20.5677 18.9285 20.6777 18.0865 20.556 17.2674C20.4803 16.7578 20.2911 16.2972 20.025 15.8061C19.7679 15.332 19.4119 14.7823 18.9726 14.1036L18.8686 13.9432L21.8488 10.9718C21.8865 10.9342 21.9238 10.8971 21.9605 10.8605C22.7923 10.032 23.3756 9.451 23.6883 8.69862C24.0009 7.9461 24.0005 7.1236 24 5.95174L24 5.95117C23.9998 5.89933 23.9998 5.84681 23.9998 5.79358L23.9998 5.09877C23.9998 4.13084 23.9998 3.3207 23.913 2.67675C23.821 1.99483 23.6182 1.37548 23.1188 0.877545C22.6197 0.379958 21.9995 0.178187 21.3168 0.0866632C20.6706 4.90558e-05 19.8572 7.15397e-05 18.8843 0.000104244L18.1916 0.000104244L18.1916 0.000104244ZM15.9197 1.85796C16.3281 1.68929 16.7943 1.67455 18.1916 1.67455L18.8267 1.67455C19.8723 1.67455 20.5725 1.67631 21.0943 1.74627C21.5923 1.81302 21.8007 1.92781 21.9365 2.06333C22.0722 2.1985 22.1868 2.4052 22.2536 2.90053C22.3237 3.4202 22.3255 4.11776 22.3255 5.16048L22.3255 5.79358C22.3255 7.18738 22.3106 7.65042 22.1419 8.0562C21.9733 8.46226 21.655 8.80057 20.6666 9.78609L14.1399 16.2933C13.5692 16.8624 13.1398 17.2899 12.7707 17.6085C12.4004 17.9284 12.1508 18.0845 11.955 18.1566C11.8518 18.1946 11.7598 18.2105 11.6651 18.2105C11.472 18.2105 11.2431 18.1446 10.8442 17.841C10.4257 17.5228 9.92954 17.0305 9.19013 16.2933L9.01828 16.1219L10.7232 14.4222C11.0506 14.0957 11.0514 13.5656 10.7249 13.2381C10.3985 12.9107 9.86837 12.9099 9.54096 13.2363L7.83252 14.9397L7.65712 14.7649C6.91768 14.0276 6.42402 13.5329 6.10487 13.1158C5.80042 12.7179 5.73521 12.4911 5.73521 12.3008C5.73521 12.2002 5.75354 12.1009 5.79975 11.9861C5.87898 11.7891 6.04195 11.5396 6.3612 11.1753C6.67895 10.8126 7.10073 10.3915 7.65712 9.83677L14.1837 3.32955C15.1719 2.34432 15.5115 2.02654 15.9197 1.85796L15.9197 1.85796ZM18.3882 5.59405C17.2148 4.42414 15.3134 4.42414 14.1399 5.59405C12.9652 6.76536 12.9652 8.66545 14.1399 9.83677C15.3134 11.0066 17.2148 11.0066 18.3882 9.83677C19.5631 8.66545 19.5631 6.76536 18.3882 5.59405L18.3882 5.59405ZM7.35196 5.43661C7.72978 5.6402 8.17974 5.92599 8.80485 6.32798L6.45673 8.66912C5.92253 9.20173 5.46106 9.66182 5.10188 10.0717C5.02317 10.1616 4.94696 10.2516 4.87396 10.3423L4.34066 9.81053C4.2922 9.76225 4.26218 9.73231 4.23169 9.70273C3.66196 9.1499 2.99191 8.71049 2.25748 8.40789C2.21819 8.3917 2.17875 8.37607 2.11509 8.35085L1.68675 8.18111C1.68178 8.17915 1.67907 8.17703 1.67876 8.17681C1.67825 8.17617 1.67635 8.17339 1.6753 8.16832C1.67425 8.16325 1.67504 8.15996 1.67515 8.15957C1.67526 8.1594 1.67638 8.15745 1.67993 8.15391C2.30846 7.52727 2.9826 6.85536 3.58844 6.30267C3.89114 6.02653 4.16679 5.78937 4.40324 5.60712C4.65265 5.41489 4.81086 5.32133 4.88601 5.29015C5.38907 5.08142 5.92638 5.01453 6.43778 5.09011C6.68269 5.1263 6.95114 5.22062 7.35196 5.43661L7.35196 5.43661ZM15.3222 6.77985C15.8421 6.26147 16.6861 6.26147 17.206 6.77985C17.7246 7.29684 17.7246 8.134 17.206 8.65099C16.6861 9.16937 15.8421 9.16937 15.3222 8.65099C14.8037 8.134 14.8037 7.29684 15.3222 6.77985L15.3222 6.77985ZM13.7716 19.2135L13.714 19.156L13.6238 19.077C13.7047 19.0122 13.7851 18.945 13.8652 18.8758C14.2847 18.5135 14.7558 18.0437 15.3026 17.4986L17.6564 15.1518C18.061 15.7771 18.3483 16.2268 18.5529 16.6042C18.7694 17.0036 18.8637 17.2706 18.8998 17.5136C18.9755 18.0221 18.9086 18.5565 18.6996 19.0571C18.6686 19.1315 18.5749 19.2889 18.3822 19.5376C18.1994 19.7733 17.9616 20.0482 17.6846 20.3499C17.1303 20.9539 16.4564 21.626 15.8278 22.2527L15.8053 22.2753C15.5897 21.7345 15.4517 21.3918 15.2734 21.0669C15.1103 20.7694 14.9231 20.4857 14.7138 20.2187C14.4778 19.9176 14.2076 19.6482 13.7716 19.2135L13.7716 19.2135Z" fill="#000000" fill-rule="evenodd" />
  </g>
</svg>