<?xml version="1.0" encoding="utf-8"?>
<svg width="24" height="23" viewBox="0 0 24 23" fill="none" xmlns="http://www.w3.org/2000/svg">
  <g>
    <path d="M4.67783 22.2416C3.84107 23.1835 2.8997 23.2515 2.07249 22.4261L0.570108 20.8917C-0.266653 20.0371 -0.162041 19.0951 0.750792 18.2308L11.6192 8.0146C11.391 7.57759 11.3719 7.10177 11.6001 6.51911L12.2087 4.94588C10.7634 3.9456 9.28953 3.82906 7.81569 4.20783C7.17862 4.37292 6.71268 4.14954 6.494 3.78051C6.22775 3.35324 6.26578 2.77054 6.68414 2.34327C9.70793 -0.774053 14.1295 -0.880848 17.5812 2.6249L19.9297 5.01382C20.5287 5.61593 20.6714 6.07239 20.5382 6.63561L20.2529 7.77182L20.8997 8.43217L21.413 8.37393C21.9265 8.29623 22.3355 8.47102 22.8203 8.96633L23.6192 9.78207C24.104 10.287 24.1325 10.9377 23.6667 11.4136L20.5002 14.6474C20.0343 15.1232 19.3877 15.0941 18.9028 14.5891L18.104 13.7831C17.6191 13.2878 17.467 12.8799 17.5336 12.3458L17.5812 11.8311L16.906 11.1416L15.8885 11.3553C15.4226 11.4524 15.0423 11.4621 14.6334 11.1708L4.67783 22.2416L4.67783 22.2416ZM16.364 3.46003C14.0248 1.07106 10.7919 0.750625 8.19606 2.73168C8.11999 2.79968 8.11999 2.84822 8.14853 2.89677C8.17702 2.93562 8.2341 2.95506 8.31967 2.92592C10.307 2.27527 12.3704 3.12015 13.9298 4.64484L12.9979 6.91723C12.8743 7.228 12.9028 7.36394 13.1311 7.59703L15.242 9.76262C15.4797 10.0054 15.6223 10.0054 15.898 9.94715L17.4766 9.63638L18.9979 11.1902L18.9124 12.1516C18.8838 12.4332 18.9028 12.5206 19.1215 12.744L19.7301 13.3655L22.4021 10.627L21.8029 10.0054C21.5746 9.78206 21.4892 9.76262 21.2134 9.79177L20.2816 9.87916L18.7507 8.31567L19.112 6.76188C19.1786 6.47051 19.15 6.28602 18.9217 6.05294L16.364 3.46003L16.364 3.46003ZM1.81573 19.0951C1.49244 19.3962 1.3213 19.6973 1.80623 20.1925L2.73811 21.1539C3.13747 21.5521 3.50829 21.455 3.80304 21.1248L13.6825 10.2579L12.494 9.03433L1.81573 19.0951L1.81573 19.0951Z" fill="#000000" />
  </g>
</svg>