<?xml version="1.0" encoding="utf-8"?>
<svg width="19.314" height="19.314" viewBox="0 0 19.314 19.314" fill="none" xmlns="http://www.w3.org/2000/svg">
  <g transform="translate(1 1)">
    <path d="M5.12143 0.878815C3.94971 -0.292908 2.05052 -0.292908 0.878799 0.878815C-0.292938 2.05054 -0.292938 3.94971 0.878799 5.12146L3.778 8.02066C3.86238 8.10504 3.92741 8.20236 3.97308 8.31262C4.01875 8.42285 4.04158 8.53763 4.04158 8.65698C4.04158 8.77634 4.01875 8.89111 3.97308 9.00137C3.92741 9.11163 3.86238 9.20892 3.778 9.2933L0.878799 12.1925C-0.292938 13.3643 -0.292938 15.2634 0.878799 16.4352C2.05052 17.6069 3.94971 17.6069 5.12143 16.4352L8.02065 13.5359C8.19637 13.3603 8.40848 13.2724 8.65697 13.2724C8.90547 13.2724 9.11758 13.3603 9.2933 13.5359L12.1925 16.4352C13.3642 17.6069 15.2634 17.6069 16.4352 16.4352C17.6069 15.2634 17.6069 13.3643 16.4352 12.1925L13.5359 9.2933C13.4516 9.20892 13.3865 9.11163 13.3409 9.00137C13.2952 8.89111 13.2724 8.77634 13.2724 8.65698C13.2724 8.53763 13.2952 8.42285 13.3409 8.31262C13.3865 8.20236 13.4516 8.10504 13.5359 8.02066L16.4352 5.12143C17.6069 3.94971 17.6069 2.05054 16.4352 0.878784C15.2634 -0.292938 13.3643 -0.292938 12.1925 0.878784L9.2933 3.77802C9.11758 3.95377 8.90547 4.04163 8.65698 4.04163C8.40848 4.04163 8.19637 3.95377 8.02065 3.77802L5.12143 0.878815L5.12143 0.878815Z" fill="none" stroke-width="2" stroke="#FFFFFF" />
  </g>
</svg>