<?xml version="1.0" encoding="utf-8"?>
<svg width="23" height="24" viewBox="0 0 23 24" fill="none" xmlns="http://www.w3.org/2000/svg">
  <g>
    <path d="M11.4714 8.94236e-07C10.9693 -1.54575e-05 10.55 -1.54575e-05 10.2058 0.0231877C9.84759 0.0473392 9.50919 0.0994032 9.18109 0.233667C8.41975 0.545233 7.81486 1.14284 7.4995 1.89502C7.33535 2.28661 7.2909 2.6993 7.27391 3.14786C7.26024 3.50845 7.07607 3.80932 6.80424 3.96437C6.53241 4.11941 6.1766 4.12658 5.8537 3.95797C5.45201 3.74821 5.06804 3.57991 4.64268 3.52457C3.82567 3.4183 2.99939 3.63705 2.34561 4.13268C2.06388 4.34626 1.84902 4.60979 1.64872 4.90427C1.4563 5.18713 1.24671 5.54584 0.995598 5.97552L0.967065 6.02434C0.715957 6.45402 0.506359 6.81269 0.354622 7.11877C0.196629 7.4374 0.0730611 7.753 0.0267191 8.10085C-0.0808606 8.90804 0.140555 9.72438 0.642207 10.3703C0.903344 10.7065 1.2428 10.9509 1.62744 11.1897C1.93677 11.3817 2.10844 11.6898 2.10844 12C2.1084 12.3101 1.93674 12.6182 1.62744 12.8102C1.24277 13.049 0.903245 13.2934 0.642108 13.6297C0.140456 14.2755 -0.0809599 15.0919 0.0265867 15.899C0.0729618 16.2469 0.196529 16.5626 0.35449 16.8811C0.50626 17.1872 0.715858 17.5459 0.966932 17.9756L0.995499 18.0244C1.24657 18.4541 1.45617 18.8128 1.64859 19.0956C1.84892 19.3901 2.06375 19.6537 2.34551 19.8672C2.99926 20.3628 3.82554 20.5816 4.64255 20.4753C5.06787 20.42 5.45185 20.2518 5.8535 20.042C6.17647 19.8733 6.53231 19.8805 6.80417 20.0356C7.07604 20.1907 7.26024 20.4915 7.27391 20.8522C7.2909 21.3007 7.33535 21.7134 7.4995 22.105C7.81486 22.8572 8.41975 23.4548 9.18109 23.7664C9.50919 23.9007 9.84759 23.9527 10.2058 23.9768C10.55 24 10.9693 24 11.4714 24L11.5285 24C12.0307 24 12.4499 24 12.7941 23.9768C13.1524 23.9527 13.4908 23.9007 13.8189 23.7664C14.5802 23.4548 15.1852 22.8572 15.5005 22.105C15.6647 21.7134 15.7091 21.3007 15.726 20.8521C15.7397 20.4915 15.9239 20.1907 16.1957 20.0355C16.4675 19.8805 16.8234 19.8733 17.1464 20.0419C17.548 20.2516 17.9319 20.42 18.3574 20.4752C19.1744 20.5815 20.0006 20.3628 20.6544 19.8672C20.9362 19.6535 21.1509 19.3901 21.3513 19.0956C21.5437 18.8128 21.7533 18.4541 22.0043 18.0244L22.0329 17.9756C22.284 17.5459 22.4937 17.1871 22.6454 16.8811C22.8034 16.5625 22.9269 16.2469 22.9733 15.899C23.0809 15.0918 22.8594 14.2754 22.3577 13.6295C22.0966 13.2933 21.7571 13.049 21.3725 12.8102C21.0631 12.6182 20.8915 12.3101 20.8915 11.9999C20.8915 11.6898 21.0631 11.3818 21.3724 11.1898C21.7572 10.951 22.0967 10.7067 22.3579 10.3703C22.8595 9.72445 23.081 8.90812 22.9734 8.10093C22.927 7.75307 22.8035 7.43748 22.6455 7.11885C22.4938 6.81279 22.2842 6.45413 22.033 6.02451L22.0046 5.97565C21.7534 5.54596 21.5438 5.18722 21.3514 4.90435C21.1511 4.60987 20.9363 4.34634 20.6545 4.13274C20.0008 3.63714 19.1745 3.41838 18.3574 3.52465C17.9321 3.57997 17.5481 3.74826 17.1465 3.95801C16.8236 4.12666 16.4677 4.11948 16.1958 3.9644C15.924 3.80934 15.7397 3.50843 15.726 3.14781C15.7091 2.69925 15.6647 2.28658 15.5005 1.89502C15.1852 1.14284 14.5802 0.545233 13.8189 0.233667C13.4908 0.0994032 13.1524 0.0473392 12.7941 0.0231877C12.4499 -1.54575e-05 12.0307 -1.54575e-05 11.5285 8.94236e-07L11.4714 8.94236e-07L11.4714 8.94236e-07ZM9.82961 1.78064C9.91683 1.74496 10.0492 1.71206 10.3212 1.69372C10.6008 1.67488 10.9619 1.67442 11.5 1.67442C12.038 1.67442 12.3991 1.67488 12.6787 1.69372C12.9507 1.71206 13.0832 1.74496 13.1703 1.78064C13.5164 1.92227 13.7914 2.1939 13.9346 2.5358C13.9799 2.64364 14.0173 2.81177 14.0325 3.21039C14.0659 4.09491 14.528 4.94655 15.3484 5.41449C16.1687 5.88245 17.1464 5.85198 17.9384 5.43838C18.2953 5.25199 18.4615 5.19999 18.5786 5.18475C18.95 5.13645 19.3256 5.23588 19.6227 5.46116C19.6976 5.5179 19.7926 5.61477 19.9447 5.83833C20.1011 6.06814 20.282 6.37686 20.551 6.83721C20.82 7.29758 21.0002 7.60675 21.1235 7.8554C21.2434 8.09729 21.2808 8.22706 21.2931 8.3195C21.342 8.68638 21.2413 9.05746 21.0133 9.35104C20.9414 9.44368 20.8128 9.55981 20.4708 9.77202C19.7123 10.243 19.1969 11.0641 19.1967 11.9999C19.1967 12.9358 19.7122 13.757 20.4708 14.228C20.8127 14.4402 20.9412 14.5563 21.0132 14.6489C21.2412 14.9425 21.3419 15.3136 21.293 15.6805C21.2807 15.7729 21.2433 15.9026 21.1234 16.1445C21.0001 16.3931 20.8199 16.7023 20.5509 17.1627C20.2819 17.623 20.101 17.9318 19.9446 18.1616C19.7925 18.3851 19.6975 18.482 19.6226 18.5387C19.3254 18.7641 18.9499 18.8634 18.5785 18.8152C18.4614 18.7999 18.2952 18.7479 17.9383 18.5616C17.1463 18.1479 16.1686 18.1175 15.3482 18.5855C14.528 19.0534 14.0659 19.905 14.0325 20.7896C14.0173 21.1882 13.9799 21.3563 13.9346 21.4643C13.7914 21.8061 13.5164 22.0778 13.1703 22.2194C13.0832 22.255 12.9507 22.288 12.6787 22.3063C12.3991 22.3251 12.038 22.3256 11.5 22.3256C10.9619 22.3256 10.6008 22.3251 10.3212 22.3063C10.0492 22.288 9.91683 22.255 9.82961 22.2194C9.48364 22.0778 9.20866 21.8061 9.0653 21.4643C9.02008 21.3563 8.98261 21.1882 8.96752 20.7896C8.93405 19.9052 8.47192 19.0534 7.65157 18.5855C6.83122 18.1175 5.85363 18.148 5.06158 18.5616C4.70462 18.748 4.53851 18.8 4.42137 18.8152C4.04997 18.8636 3.6744 18.7641 3.37725 18.5388C3.30237 18.4821 3.20731 18.3852 3.05524 18.1616C2.89893 17.9319 2.718 17.6231 2.44895 17.1628C2.17994 16.7024 1.9998 16.3932 1.8765 16.1446C1.7566 15.9027 1.7192 15.7729 1.70688 15.6805C1.65799 15.3136 1.75865 14.9425 1.98666 14.6489C2.05859 14.5564 2.18722 14.4402 2.52912 14.228C3.28768 13.7571 3.80316 12.9359 3.80323 12.0001C3.80326 11.0641 3.28778 10.2429 2.52912 9.7719C2.18732 9.55969 2.05869 9.44358 1.98679 9.35098C1.75875 9.05738 1.65813 8.68631 1.70702 8.31941C1.71933 8.22699 1.7567 8.09721 1.87663 7.85533C1.9999 7.60667 2.18004 7.29749 2.44908 6.83714C2.7181 6.37678 2.89903 6.06806 3.05537 5.83825C3.20744 5.6147 3.30247 5.51784 3.37735 5.46109C3.67453 5.2358 4.0501 5.13637 4.42147 5.18467C4.53861 5.19991 4.70475 5.25191 5.06175 5.43833C5.85377 5.85193 6.83132 5.88236 7.65164 5.41446C8.47196 4.94655 8.93405 4.09492 8.96752 3.21044C8.98261 2.81179 9.02008 2.64366 9.0653 2.5358C9.20866 2.1939 9.48364 1.92227 9.82961 1.78064L9.82961 1.78064ZM11.5 7.81396C9.16 7.81396 7.26302 9.68812 7.26302 12C7.26302 14.3119 9.16 16.1861 11.5 16.1861C13.8401 16.1861 15.737 14.3119 15.737 12C15.737 9.68812 13.8401 7.81396 11.5 7.81396L11.5 7.81396ZM8.95782 12C8.95782 10.6129 10.0961 9.48839 11.5 9.48839C12.904 9.48839 14.0422 10.6129 14.0422 12C14.0422 13.3871 12.904 14.5116 11.5 14.5116C10.0961 14.5116 8.95782 13.3871 8.95782 12L8.95782 12Z" fill="#000000" fill-rule="evenodd" />
  </g>
</svg>